<?xml version="1.0" encoding="utf-8"?>
<!-- Generator: Adobe Illustrator 25.3.0, SVG Export Plug-In . SVG Version: 6.00 Build 0)  -->
<svg version="1.1" id="Layer_1" xmlns="http://www.w3.org/2000/svg" xmlns:xlink="http://www.w3.org/1999/xlink" x="0px" y="0px"
	 viewBox="0 0 742 639" style="enable-background:new 0 0 742 639;" xml:space="preserve">
<style type="text/css">
	.st0{clip-path:url(#SVGID_2_);}
	.st1{fill:#F5F4F8;}
	.st2{fill:#FFFFFF;}
	.st3{fill:#DBD8E9;}
	.st4{fill:#754FFE;}
	.st5{opacity:0.7;fill:#18113C;}
	.st6{fill:none;}
	.st7{fill:#5C5776;}
	.st8{fill:#9B99BC;}
	.st9{fill:#A8A3B9;}
	.st10{fill:#79758F;}
	.st11{fill:#FBC812;stroke:#18113C;stroke-width:1.8435;}
	.st12{fill:none;stroke:#DBD8E9;stroke-width:1.8435;stroke-dasharray:3.69,3.69;}
	.st13{fill:#DBD8E9;fill-opacity:0.6;}
	.st14{fill:#DFDEF8;fill-opacity:0.8;}
	.st15{fill:#DBD8E9;fill-opacity:0.4;}
	.st16{fill:#DBD8E9;fill-opacity:0.2;}
	.st17{fill:#DFDEF8;}
	.st18{fill:#DFDEF8;fill-opacity:0.6;}
	.st19{fill:#DFDEF8;fill-opacity:0.4;}
	.st20{fill:none;stroke:#D5D3E8;stroke-width:1.8435;stroke-dasharray:3.69,3.69;}
	.st21{fill:#F8F8FB;}
	.st22{fill:#3F3A4F;}
	.st23{fill:#F5F4F8;stroke:#EEEEEE;stroke-width:3;stroke-miterlimit:10;}
	.st24{fill:#FFFFFF;stroke:#EEEEEE;stroke-width:4;stroke-miterlimit:10;}
	.st25{fill:#18113C;}
	.st26{opacity:0;fill:#ECEBF1;stroke:#000EEE;stroke-miterlimit:10;}
	.st27{opacity:0.5;fill:#ECEBF1;}
	.st28{fill:#00E913;}
	.st29{fill:#FF5584;}
	.st30{font-family:'FilsonProBold';}
	.st31{font-size:10px;}
	.st32{fill:#777777;}
	.st33{font-family:'FilsonProMedium';}
	.st34{font-size:11px;}
	.st35{font-size:9px;}
	.st36{opacity:0.8;}
	.st37{opacity:0.7;}
</style>
<g>
	<defs>
		<rect id="SVGID_1_" y="-10" width="742" height="638.8"/>
	</defs>
	<clipPath id="SVGID_2_">
		<use xlink:href="#SVGID_1_"  style="overflow:visible;"/>
	</clipPath>
	<g class="st0">
		<g>
			<path class="st1" d="M604.4,69.5H111.3c-6.6,0-11.9,5.3-11.9,11.9v334.1c0,6.6,5.3,11.9,11.9,11.9h493.1
				c6.6,0,11.9-5.3,11.9-11.9V81.5C616.3,74.9,611,69.5,604.4,69.5z"/>
		</g>
		<path class="st2" d="M99.4,81.5c0-6.6,5.3-11.9,11.9-11.9h27.8v358h-27.8c-6.6,0-11.9-5.3-11.9-11.9V81.5z"/>
		<path class="st3" d="M124.4,398l1.1,0.6c0.1,0.1,0.2,0.2,0.1,0.4c-0.3,0.9-0.8,1.7-1.4,2.4c0,0.1-0.1,0.1-0.2,0.1
			c-0.1,0-0.1,0-0.2,0l-1.1-0.6c-0.4,0.4-1,0.7-1.5,0.9v1.2c0,0.1,0,0.1-0.1,0.2c0,0.1-0.1,0.1-0.2,0.1c-0.9,0.2-1.8,0.2-2.7,0
			c-0.1,0-0.2-0.2-0.2-0.3v-1.2c-0.6-0.2-1.1-0.5-1.5-0.9l-1.1,0.6c-0.1,0-0.1,0-0.2,0c-0.1,0-0.1,0-0.2-0.1
			c-0.6-0.7-1.1-1.5-1.4-2.4c0-0.1,0-0.3,0.1-0.4l1.1-0.6c-0.1-0.6-0.1-1.2,0-1.8l-1.1-0.6c-0.1-0.1-0.2-0.2-0.1-0.4
			c0.3-0.9,0.8-1.7,1.4-2.4c0,0,0.1-0.1,0.2-0.1c0.1,0,0.1,0,0.2,0l1.1,0.6c0.4-0.4,1-0.7,1.5-0.9v-1.2c0-0.1,0-0.1,0.1-0.2
			c0-0.1,0.1-0.1,0.2-0.1c0.9-0.2,1.8-0.2,2.7,0c0.1,0,0.2,0.2,0.2,0.3v1.2c0.6,0.2,1.1,0.5,1.5,0.9l1.1-0.6c0.1,0,0.1,0,0.2,0
			c0.1,0,0.1,0,0.2,0.1c0.6,0.7,1.1,1.5,1.4,2.4c0,0.1,0,0.3-0.1,0.4l-1.1,0.6C124.5,396.9,124.5,397.4,124.4,398z M121.7,397.2
			c0-1.1-0.9-2-2-2c-1.1,0-2,0.9-2,2c0,1.1,0.9,2,2,2C120.8,399.2,121.7,398.3,121.7,397.2z"/>
		<path class="st4" d="M115.3,142.5c-0.2,0-0.4,0-0.5-0.1c-0.2-0.1-0.3-0.2-0.4-0.4c-0.4-0.8-0.7-1.8-0.7-2.8c0-3.3,2.7-6,6-6
			c3.3,0,6,2.7,6,6c0,1-0.2,2-0.7,2.8c-0.1,0.2-0.2,0.3-0.4,0.4c-0.2,0.1-0.3,0.1-0.5,0.1H115.3z M124.3,138.5
			c-0.4,0-0.7,0.3-0.7,0.7s0.3,0.7,0.7,0.7c0.4,0,0.7-0.3,0.7-0.7S124.7,138.5,124.3,138.5z M119.7,135.2c0.4,0,0.7-0.3,0.7-0.7
			s-0.3-0.7-0.7-0.7c-0.4,0-0.7,0.3-0.7,0.7S119.3,135.2,119.7,135.2z M115.1,138.5c-0.4,0-0.7,0.3-0.7,0.7s0.3,0.7,0.7,0.7
			c0.4,0,0.7-0.3,0.7-0.7S115.4,138.5,115.1,138.5z M116.4,135.2c-0.4,0-0.7,0.3-0.7,0.7s0.3,0.7,0.7,0.7c0.4,0,0.7-0.3,0.7-0.7
			S116.8,135.2,116.4,135.2z M123,135.2c-0.4,0-0.7,0.3-0.7,0.7s0.3,0.7,0.7,0.7c0.4,0,0.7-0.3,0.7-0.7S123.3,135.2,123,135.2z
			 M121.2,135.9c-0.3-0.1-0.5,0.1-0.6,0.3l-1,3c-0.7,0.1-1.2,0.6-1.2,1.3c0,0.7,0.6,1.3,1.3,1.3c0.7,0,1.3-0.6,1.3-1.3
			c0-0.4-0.2-0.8-0.5-1l1-3C121.6,136.2,121.4,135.9,121.2,135.9z"/>
		<path class="st3" d="M119.7,242c1.9,0,3.4-1.5,3.4-3.4c0-1.9-1.5-3.4-3.4-3.4c-1.9,0-3.4,1.5-3.4,3.4
			C116.3,240.5,117.8,242,119.7,242z M122.7,242.8h-1.3c-0.5,0.2-1.1,0.4-1.7,0.4c-0.6,0-1.2-0.1-1.7-0.4h-1.3c-1.6,0-3,1.3-3,3v0.4
			c0,0.6,0.5,1.1,1.1,1.1h9.7c0.6,0,1.1-0.5,1.1-1.1v-0.4C125.7,244.1,124.3,242.8,122.7,242.8z"/>
		<path class="st3" d="M142.7,167.5h9.7c0.2,0,0.4-0.2,0.4-0.4v-1.5c0-0.2-0.2-0.4-0.4-0.4h-9.7c-0.2,0-0.4,0.2-0.4,0.4v1.5
			C142.3,167.3,142.5,167.5,142.7,167.5z M125.3,170.4h-9.7c-0.2,0-0.4,0.2-0.4,0.4v1.5c0,0.2,0.2,0.4,0.4,0.4h9.7
			c0.2,0,0.4-0.2,0.4-0.4v-1.5C125.7,170.6,125.5,170.4,125.3,170.4z M123.8,174.5h-9.7c-0.2,0-0.4,0.2-0.4,0.4v1.5
			c0,0.2,0.2,0.4,0.4,0.4h9.7c0.2,0,0.4-0.2,0.4-0.4v-1.5C124.2,174.7,124,174.5,123.8,174.5z"/>
		<path class="st3" d="M119.8,200.9v4.8h4.8c0.1,0,0.3-0.1,0.3-0.3c-0.1-2.6-2.2-4.7-4.8-4.8C119.9,200.6,119.8,200.7,119.8,200.9z
			 M125.4,206.7c0.1,0,0.3,0.1,0.3,0.3c-0.1,1.1-0.5,2.2-1.3,3.1c-0.1,0.1-0.3,0.1-0.4,0l-3.4-3.4H125.4z M122.2,209.8
			c0.1,0.1,0.1,0.3,0,0.4c-0.9,0.8-2.1,1.3-3.4,1.3c-2.8,0-5.1-2.3-5.1-5.1c0-2.7,2.1-4.9,4.8-5.1c0.1,0,0.3,0.1,0.3,0.3v4.8
			L122.2,209.8z"/>
		<path class="st5" d="M99.4,81.5c0-6.6,5.3-11.9,11.9-11.9h493.1c6.6,0,11.9,5.3,11.9,11.9v27.8H99.4V81.5z"/>
		<path class="st6" d="M572.6,77.5h-15.9c-2.2,0-4,1.8-4,4v15.9c0,2.2,1.8,4,4,4h15.9c2.2,0,4-1.8,4-4V81.5
			C576.6,79.3,574.8,77.5,572.6,77.5z"/>
		<path class="st7" d="M506.6,77.5H395.3c-2.2,0-4,1.8-4,4v15.9c0,2.2,1.8,4,4,4h111.3c2.2,0,4-1.8,4-4V81.5
			C510.6,79.3,508.8,77.5,506.6,77.5z"/>
		<path class="st8" d="M408.6,92.9l-1.9-1.9c-0.1-0.1-0.2-0.1-0.3-0.1h-0.3c0.5-0.7,0.8-1.5,0.8-2.4c0-2.1-1.7-3.9-3.9-3.9
			c-2.1,0-3.9,1.7-3.9,3.9c0,2.1,1.7,3.9,3.9,3.9c0.9,0,1.7-0.3,2.4-0.8v0.3c0,0.1,0,0.2,0.1,0.3l1.9,1.9c0.2,0.2,0.5,0.2,0.6,0
			l0.5-0.5C408.8,93.4,408.8,93.1,408.6,92.9z M403.1,90.9c-1.3,0-2.4-1.1-2.4-2.4c0-1.3,1.1-2.4,2.4-2.4c1.3,0,2.4,1.1,2.4,2.4
			C405.5,89.9,404.4,90.9,403.1,90.9z"/>
		<path class="st9" d="M419.7,93.5c-1.1,0-1.9-0.3-2.5-0.9l0.3-0.6c0.3,0.3,0.7,0.5,1,0.6s0.8,0.2,1.2,0.2c0.5,0,1-0.1,1.3-0.3
			c0.3-0.2,0.4-0.5,0.4-0.9c0-0.2-0.1-0.4-0.2-0.6c-0.1-0.1-0.3-0.3-0.6-0.3c-0.2-0.1-0.5-0.2-0.9-0.3c-0.5-0.1-1-0.2-1.3-0.4
			c-0.3-0.1-0.6-0.3-0.8-0.6c-0.2-0.3-0.3-0.6-0.3-1c0-0.4,0.1-0.7,0.3-1c0.2-0.3,0.5-0.5,0.9-0.7c0.4-0.2,0.8-0.2,1.3-0.2
			c0.5,0,0.9,0.1,1.3,0.2c0.4,0.1,0.8,0.4,1,0.6l-0.3,0.6c-0.3-0.3-0.6-0.5-1-0.6c-0.3-0.1-0.7-0.2-1.1-0.2c-0.5,0-0.9,0.1-1.2,0.3
			c-0.3,0.2-0.4,0.5-0.4,0.9c0,0.3,0.1,0.6,0.4,0.8c0.3,0.2,0.7,0.3,1.2,0.4c0.6,0.1,1,0.3,1.4,0.4c0.3,0.1,0.6,0.3,0.8,0.5
			c0.2,0.2,0.3,0.6,0.3,0.9c0,0.4-0.1,0.7-0.3,1c-0.2,0.3-0.5,0.5-0.9,0.7C420.7,93.4,420.2,93.5,419.7,93.5z M427.4,91h-3.5
			c0,0.6,0.1,1.1,0.4,1.4c0.3,0.3,0.7,0.5,1.2,0.5c0.6,0,1.1-0.2,1.5-0.6l0.3,0.6c-0.2,0.2-0.5,0.4-0.8,0.5c-0.3,0.1-0.7,0.2-1,0.2
			c-0.8,0-1.3-0.2-1.8-0.7c-0.4-0.4-0.6-1.1-0.6-1.8c0-0.5,0.1-0.9,0.3-1.3c0.2-0.4,0.5-0.7,0.8-0.9c0.3-0.2,0.7-0.3,1.2-0.3
			c0.6,0,1.1,0.2,1.5,0.6c0.4,0.4,0.5,1,0.5,1.7V91z M425.4,89.1c-0.4,0-0.7,0.1-1,0.4c-0.2,0.2-0.4,0.6-0.5,1h2.8
			c0-0.5-0.2-0.8-0.4-1C426.1,89.2,425.8,89.1,425.4,89.1z M432.8,88.6v4.8h-0.8v-0.9c-0.1,0.3-0.4,0.5-0.6,0.7
			c-0.3,0.2-0.6,0.2-1,0.2c-0.4,0-0.8-0.1-1.1-0.3c-0.3-0.2-0.6-0.5-0.7-0.9c-0.2-0.4-0.3-0.8-0.3-1.3c0-0.5,0.1-0.9,0.3-1.3
			c0.2-0.4,0.4-0.7,0.7-0.9c0.3-0.2,0.7-0.3,1.1-0.3c0.4,0,0.7,0.1,1,0.2c0.3,0.2,0.5,0.4,0.6,0.7v-0.8H432.8z M430.6,92.8
			c0.5,0,0.8-0.2,1.1-0.5c0.3-0.3,0.4-0.8,0.4-1.4s-0.1-1-0.4-1.4c-0.3-0.3-0.6-0.5-1.1-0.5c-0.5,0-0.8,0.2-1.1,0.5
			c-0.3,0.3-0.4,0.8-0.4,1.4c0,0.6,0.1,1,0.4,1.4C429.8,92.7,430.1,92.8,430.6,92.8z M436.6,88.5c0.2,0,0.3,0,0.4,0.1l0,0.7
			c-0.1-0.1-0.3-0.1-0.5-0.1c-0.5,0-0.8,0.1-1,0.4c-0.2,0.3-0.3,0.6-0.3,1.1v2.7h-0.8V90c0-0.5,0-0.9-0.1-1.3h0.7l0.1,0.9
			c0.1-0.3,0.3-0.6,0.6-0.7C435.9,88.6,436.2,88.5,436.6,88.5z M439.7,93.5c-0.5,0-0.9-0.1-1.2-0.3c-0.3-0.2-0.6-0.5-0.8-0.9
			c-0.2-0.4-0.3-0.8-0.3-1.3c0-0.5,0.1-0.9,0.3-1.3c0.2-0.4,0.5-0.7,0.8-0.9c0.4-0.2,0.8-0.3,1.2-0.3c0.3,0,0.6,0.1,0.9,0.2
			c0.3,0.1,0.6,0.3,0.8,0.5l-0.3,0.6c-0.2-0.2-0.5-0.3-0.7-0.4c-0.2-0.1-0.5-0.1-0.7-0.1c-0.5,0-0.9,0.2-1.2,0.5
			c-0.3,0.3-0.4,0.8-0.4,1.4c0,0.6,0.1,1,0.4,1.4c0.3,0.3,0.7,0.5,1.2,0.5c0.2,0,0.5,0,0.7-0.1c0.2-0.1,0.5-0.2,0.7-0.4l0.3,0.6
			c-0.2,0.2-0.5,0.3-0.8,0.5C440.4,93.4,440,93.5,439.7,93.5z M444.8,88.5c1.2,0,1.7,0.6,1.7,1.9v3h-0.8v-3c0-0.4-0.1-0.8-0.3-1
			c-0.2-0.2-0.5-0.3-0.8-0.3c-0.4,0-0.8,0.1-1.1,0.4c-0.3,0.3-0.4,0.6-0.4,1.1v2.8h-0.8v-7h0.8v3c0.2-0.3,0.4-0.5,0.6-0.7
			C444.1,88.6,444.5,88.5,444.8,88.5z M448.9,92.4v1h-1v-1H448.9z M451.1,92.4v1h-1v-1H451.1z M453.3,92.4v1h-1v-1H453.3z"/>
		<path class="st10" d="M536.6,92.4c-0.5-0.5-1.2-1.2-1.2-3.7c0-1.9-1.3-3.4-3.1-3.7c0.1-0.1,0.1-0.3,0.1-0.4c0-0.4-0.3-0.7-0.7-0.7
			c-0.4,0-0.7,0.3-0.7,0.7c0,0.2,0,0.3,0.1,0.4c-1.8,0.3-3.1,1.8-3.1,3.7c0,2.5-0.6,3.2-1.2,3.7c-0.7,0.7-0.2,1.9,0.8,1.9h2.6
			c0,0.8,0.7,1.5,1.5,1.5c0.8,0,1.5-0.7,1.5-1.5h2.6C536.8,94.3,537.3,93.1,536.6,92.4z M531.7,94.9c0,0,0.1,0,0.1,0.1
			c0,0,0.1,0.1,0.1,0.1c0,0,0,0.1-0.1,0.1c0,0-0.1,0.1-0.1,0.1c-0.5,0-0.9-0.4-0.9-0.9h0.4C531.1,94.6,531.4,94.9,531.7,94.9z"/>
		<path class="st11" d="M535.2,90.2c1.3,0,2.4-1.1,2.4-2.4c0-1.3-1.1-2.4-2.4-2.4c-1.3,0-2.4,1.1-2.4,2.4
			C532.8,89.2,533.9,90.2,535.2,90.2z"/>
		<path class="st8" d="M596.2,91.7l-3.5-3.5c-0.2-0.2-0.2-0.4,0-0.6l0.4-0.4c0.2-0.2,0.4-0.2,0.6,0l2.8,2.8l2.8-2.8
			c0.2-0.2,0.4-0.2,0.6,0l0.4,0.4c0.2,0.2,0.2,0.4,0,0.6l-3.5,3.5C596.6,91.9,596.3,91.9,596.2,91.7z"/>
		<path class="st12" d="M274.4,167.4H171c-4,0-7.2,3.2-7.2,7.2v87.5c0,4,3.2,7.2,7.2,7.2h103.4c4,0,7.2-3.2,7.2-7.2v-87.5
			C281.5,170.6,278.3,167.4,274.4,167.4z"/>
		<path class="st3" d="M266.4,194.4h-87.5c-2.2,0-4,1.8-4,4c0,2.2,1.8,4,4,4h87.5c2.2,0,4-1.8,4-4
			C270.4,196.2,268.6,194.4,266.4,194.4z"/>
		<path class="st13" d="M211.5,210.3h-32.6c-2.2,0-4,1.8-4,4c0,2.2,1.8,4,4,4h32.6c2.2,0,4-1.8,4-4
			C215.5,212.1,213.7,210.3,211.5,210.3z"/>
		<path class="st14" d="M199.8,109.1H160c-2.2,0-4,1.8-4,4c0,2.2,1.8,4,4,4h39.8c2.2,0,4-1.8,4-4C203.8,110.9,202,109.1,199.8,109.1
			z"/>
		<path class="st15" d="M242.6,226.3h-63.6c-2.2,0-4,1.8-4,4c0,2.2,1.8,4,4,4h63.6c2.2,0,4-1.8,4-4
			C246.5,228,244.8,226.3,242.6,226.3z"/>
		<path class="st16" d="M226.7,242.2h-47.7c-2.2,0-4,1.8-4,4c0,2.2,1.8,4,4,4h47.7c2.2,0,4-1.8,4-4
			C230.6,243.9,228.9,242.2,226.7,242.2z"/>
		<path class="st12" d="M429.5,167.4H326.1c-4,0-7.2,3.2-7.2,7.2v87.5c0,4,3.2,7.2,7.2,7.2h103.4c4,0,7.2-3.2,7.2-7.2v-87.5
			C436.6,170.6,433.4,167.4,429.5,167.4z"/>
		<path class="st17" d="M354.9,93.2h-87.5c-2.2,0-4,1.8-4,4c0,2.2,1.8,4,4,4h87.5c2.2,0,4-1.8,4-4C358.8,95,357.1,93.2,354.9,93.2z"
			/>
		<path class="st14" d="M300,109.1h-32.6c-2.2,0-4,1.8-4,4c0,2.2,1.8,4,4,4H300c2.2,0,4-1.8,4-4C304,110.9,302.2,109.1,300,109.1z"
			/>
		<path class="st14" d="M354.9,109.1h-39.8c-2.2,0-4,1.8-4,4c0,2.2,1.8,4,4,4h39.8c2.2,0,4-1.8,4-4
			C358.8,110.9,357.1,109.1,354.9,109.1z"/>
		<path class="st18" d="M331,125h-63.6c-2.2,0-4,1.8-4,4c0,2.2,1.8,4,4,4H331c2.2,0,4-1.8,4-4C335,126.8,333.2,125,331,125z"/>
		<path class="st19" d="M315.1,140.9h-47.7c-2.2,0-4,1.8-4,4c0,2.2,1.8,4,4,4h47.7c2.2,0,4-1.8,4-4
			C319.1,142.7,317.3,140.9,315.1,140.9z"/>
		<path class="st12" d="M584.5,167.4H481.1c-4,0-7.2,3.2-7.2,7.2v87.5c0,4,3.2,7.2,7.2,7.2h103.4c4,0,7.2-3.2,7.2-7.2v-87.5
			C591.7,170.6,588.5,167.4,584.5,167.4z"/>
		<path class="st17" d="M509.9,93.2h-87.5c-2.2,0-4,1.8-4,4c0,2.2,1.8,4,4,4h87.5c2.2,0,4-1.8,4-4C513.9,95,512.1,93.2,509.9,93.2z"
			/>
		<path class="st14" d="M455.1,109.1h-32.6c-2.2,0-4,1.8-4,4c0,2.2,1.8,4,4,4h32.6c2.2,0,4-1.8,4-4
			C459,110.9,457.3,109.1,455.1,109.1z"/>
		<path class="st14" d="M509.9,109.1h-39.8c-2.2,0-4,1.8-4,4c0,2.2,1.8,4,4,4h39.8c2.2,0,4-1.8,4-4
			C513.9,110.9,512.1,109.1,509.9,109.1z"/>
		<path class="st18" d="M486.1,125h-63.6c-2.2,0-4,1.8-4,4c0,2.2,1.8,4,4,4h63.6c2.2,0,4-1.8,4-4C490.1,126.8,488.3,125,486.1,125z"
			/>
		<path class="st19" d="M470.2,140.9h-47.7c-2.2,0-4,1.8-4,4c0,2.2,1.8,4,4,4h47.7c2.2,0,4-1.8,4-4
			C474.2,142.7,472.4,140.9,470.2,140.9z"/>
		<path class="st12" d="M591.7,294.7H163.8v132h427.9V294.7z"/>
		<path class="st12" d="M591.7,294.7H163.8v26.3h427.9V294.7z"/>
		<path class="st20" d="M525.1,193.4H140.1v132h384.9V193.4z"/>
		<path class="st18" d="M194.1,304.2h-15.1c-2.2,0-4,1.8-4,4c0,2.2,1.8,4,4,4h15.1c2.2,0,4-1.8,4-4C198,306,196.2,304.2,194.1,304.2
			z"/>
		<path class="st18" d="M226.8,203h-71.6c-2.2,0-4,1.8-4,4c0,2.2,1.8,4,4,4h71.6c2.2,0,4-1.8,4-4C230.8,204.7,229,203,226.8,203z"/>
		<path class="st18" d="M380.3,203h-71.6c-2.2,0-4,1.8-4,4c0,2.2,1.8,4,4,4h71.6c2.2,0,4-1.8,4-4C384.3,204.7,382.5,203,380.3,203z"
			/>
		<path class="st18" d="M458.3,203h-23.9c-2.2,0-4,1.8-4,4c0,2.2,1.8,4,4,4h23.9c2.2,0,4-1.8,4-4C462.2,204.7,460.4,203,458.3,203z"
			/>
		<path class="st18" d="M506,203h-15.9c-2.2,0-4,1.8-4,4c0,2.2,1.8,4,4,4H506c2.2,0,4-1.8,4-4C509.9,204.7,508.2,203,506,203z"/>
		<path class="st20" d="M525.1,193.4H293.6v132h231.4V193.4z"/>
		<path class="st20" d="M525.1,193.4H419.3v132h105.8V193.4z"/>
		<path class="st20" d="M525.1,193.4H475v132h50.1V193.4z"/>
		<path class="st21" d="M596.5,425.9H159.1v1.6h437.4V425.9z"/>
		<g>
			<path class="st2" d="M596.5,125.5H424.7c-2.2,0-4,1.8-4,4v27.8c0,2.2,1.8,4,4,4h171.8c2.2,0,4-1.8,4-4v-27.8
				C600.4,127.3,598.7,125.5,596.5,125.5z"/>
		</g>
		<path class="st4" d="M439.3,153.9c5.9,0,10.7-4.8,10.7-10.7s-4.8-10.7-10.7-10.7c-5.9,0-10.7,4.8-10.7,10.7
			S433.4,153.9,439.3,153.9z"/>
		<path class="st22" d="M592.6,143.9l-4.2,4.2c-0.2,0.2-0.5,0.2-0.7,0l-0.5-0.5c-0.2-0.2-0.2-0.5,0-0.7l3.4-3.4l-3.4-3.4
			c-0.2-0.2-0.2-0.5,0-0.7l0.5-0.5c0.2-0.2,0.5-0.2,0.7,0l4.2,4.2C592.8,143.4,592.8,143.7,592.6,143.9z"/>
		<g>
			<path class="st23" d="M567.7,90H146.2c-6.6,0-11.9,5.3-11.9,11.9v294.3c0,6.6,5.3,11.9,11.9,11.9h421.5c6.6,0,11.9-5.3,11.9-11.9
				V101.9C579.7,95.3,574.3,90,567.7,90z"/>
		</g>
		<g>
			<path class="st24" d="M249.7,165.9c0-4.4,2-8,4.4-8h211.2c2.4,0,4.4,3.6,4.4,8v223.5h-220V165.9z"/>
		</g>
		<path class="st6" d="M419.3,329.9h120.9V193.4H419.3"/>
		<path class="st2" d="M316.4,326.3c-0.4,0-0.7-0.1-0.9-0.4c-0.2-0.3-0.3-0.7-0.3-1.3c0-0.6,0.1-1,0.3-1.3c0.2-0.3,0.5-0.4,0.9-0.4
			c0.4,0,0.7,0.1,0.9,0.4c0.2,0.3,0.3,0.7,0.3,1.3c0,0.6-0.1,1-0.3,1.3C317.1,326.1,316.8,326.3,316.4,326.3z M316.4,325.9
			c0.2,0,0.4-0.1,0.5-0.3c0.1-0.2,0.2-0.6,0.2-1c0-0.5-0.1-0.8-0.2-1c-0.1-0.2-0.3-0.3-0.5-0.3c-0.2,0-0.4,0.1-0.5,0.3
			c-0.1,0.2-0.2,0.5-0.2,1c0,0.5,0.1,0.8,0.2,1C316,325.8,316.2,325.9,316.4,325.9z M318.7,323.9v0.6h-0.6v-0.6H318.7z M318.7,325.7
			v0.6h-0.6v-0.6H318.7z M320.4,326.3c-0.4,0-0.7-0.1-0.9-0.4c-0.2-0.3-0.3-0.7-0.3-1.3c0-0.6,0.1-1,0.3-1.3
			c0.2-0.3,0.5-0.4,0.9-0.4c0.4,0,0.7,0.1,0.9,0.4c0.2,0.3,0.3,0.7,0.3,1.3c0,0.6-0.1,1-0.3,1.3
			C321.1,326.1,320.8,326.3,320.4,326.3z M320.4,325.9c0.2,0,0.4-0.1,0.5-0.3c0.1-0.2,0.2-0.6,0.2-1c0-0.5-0.1-0.8-0.2-1
			c-0.1-0.2-0.3-0.3-0.5-0.3c-0.2,0-0.4,0.1-0.5,0.3c-0.1,0.2-0.2,0.5-0.2,1c0,0.5,0.1,0.8,0.2,1C320,325.8,320.2,325.9,320.4,325.9
			z M323.3,326.3c-0.4,0-0.7-0.1-0.9-0.4c-0.2-0.3-0.3-0.7-0.3-1.3c0-0.6,0.1-1,0.3-1.3c0.2-0.3,0.5-0.4,0.9-0.4
			c0.4,0,0.7,0.1,0.9,0.4c0.2,0.3,0.3,0.7,0.3,1.3c0,0.6-0.1,1-0.3,1.3C324,326.1,323.7,326.3,323.3,326.3z M323.3,325.9
			c0.2,0,0.4-0.1,0.5-0.3c0.1-0.2,0.2-0.6,0.2-1c0-0.5-0.1-0.8-0.2-1c-0.1-0.2-0.3-0.3-0.5-0.3c-0.2,0-0.4,0.1-0.5,0.3
			c-0.1,0.2-0.2,0.5-0.2,1c0,0.5,0.1,0.8,0.2,1C322.8,325.8,323,325.9,323.3,325.9z"/>
		<path class="st2" d="M307.8,324.2l-3.2-1.9c-0.3-0.2-0.7,0-0.7,0.4v3.8c0,0.3,0.4,0.6,0.7,0.4l3.2-1.9
			C308.1,324.8,308.1,324.4,307.8,324.2z"/>
		<path class="st2" d="M517.1,323.2v2.8c0,0.2-0.2,0.3-0.3,0.1l-0.7-0.7h-0.8c-0.1,0-0.2-0.1-0.2-0.2V324c0-0.1,0.1-0.2,0.2-0.2h0.8
			l0.7-0.7C516.9,323,517.1,323.1,517.1,323.2z M518.6,322.6c-0.1-0.1-0.3,0-0.4,0.1c-0.1,0.1,0,0.3,0.1,0.4
			c0.5,0.3,0.9,0.9,0.9,1.6c0,0.6-0.3,1.2-0.8,1.5c-0.1,0.1-0.1,0.2-0.1,0.4c0.1,0.1,0.2,0.1,0.4,0.1c0.6-0.4,1-1.2,1-1.9
			C519.7,323.8,519.2,323,518.6,322.6z M518.9,324.6c0-0.6-0.3-1.1-0.8-1.3c-0.1-0.1-0.3,0-0.4,0.1c-0.1,0.1,0,0.3,0.1,0.4
			c0.3,0.2,0.5,0.5,0.5,0.9c0,0.3-0.2,0.7-0.5,0.9c-0.1,0.1-0.1,0.2-0.1,0.4c0.1,0.1,0.1,0.1,0.2,0.1c0.1,0,0.1,0,0.1,0
			C518.6,325.6,518.9,325.1,518.9,324.6z M518.1,324.6c0-0.3-0.1-0.5-0.4-0.7c-0.1-0.1-0.3,0-0.4,0.1c-0.1,0.1,0,0.3,0.1,0.4
			c0.1,0,0.1,0.1,0.1,0.2c0,0,0,0.1,0,0.1c0,0,0,0.1-0.1,0.1c-0.1,0.1-0.1,0.2-0.1,0.4c0.1,0.1,0.2,0.1,0.4,0.1
			C518,325.1,518.1,324.9,518.1,324.6z"/>
		<path class="st2" d="M529.1,323.8v-1.3c0-0.1,0.1-0.3,0.3-0.3h1.3c0.1,0,0.1,0.1,0.1,0.1v0.4c0,0.1-0.1,0.1-0.1,0.1h-0.9v0.9
			c0,0.1-0.1,0.1-0.1,0.1h-0.4C529.2,323.9,529.1,323.9,529.1,323.8z M532.2,322.4v0.4c0,0.1,0.1,0.1,0.1,0.1h0.9v0.9
			c0,0.1,0.1,0.1,0.1,0.1h0.4c0.1,0,0.1-0.1,0.1-0.1v-1.3c0-0.1-0.1-0.3-0.3-0.3h-1.3C532.2,322.2,532.2,322.3,532.2,322.4z
			 M533.7,325.3h-0.4c-0.1,0-0.1,0.1-0.1,0.1v0.9h-0.9c-0.1,0-0.1,0.1-0.1,0.1v0.4c0,0.1,0.1,0.1,0.1,0.1h1.3c0.1,0,0.3-0.1,0.3-0.3
			v-1.3C533.9,325.3,533.8,325.3,533.7,325.3z M530.8,326.9v-0.4c0-0.1-0.1-0.1-0.1-0.1h-0.9v-0.9c0-0.1-0.1-0.1-0.1-0.1h-0.4
			c-0.1,0-0.1,0.1-0.1,0.1v1.3c0,0.1,0.1,0.3,0.3,0.3h1.3C530.8,327,530.8,326.9,530.8,326.9z"/>
		<path class="st2" d="M330.1,326c0.7,0,1.3-0.6,1.3-1.3c0-0.7-0.6-1.3-1.3-1.3c-0.7,0-1.3,0.6-1.3,1.3
			C328.8,325.5,329.4,326,330.1,326z"/>
		<path class="st25" d="M522.6,352.2 M535.6,353.3"/>
		<path class="st2" d="M134.6,100.9c0-6.6,5.3-11.9,11.9-11.9H568c6.6,0,11.9,5.3,11.9,11.9v27.8H134.6V100.9z"/>
		<path class="st6" d="M536.2,98h-15.9c-2.2,0-4,1.8-4,4v15.9c0,2.2,1.8,4,4,4h15.9c2.2,0,4-1.8,4-4v-15.9
			C540.2,99.7,538.4,98,536.2,98z"/>
		<path class="st8" d="M559.7,112.2l-3.5-3.5c-0.2-0.2-0.2-0.4,0-0.6l0.4-0.4c0.2-0.2,0.4-0.2,0.6,0l2.8,2.8l2.8-2.8
			c0.2-0.2,0.4-0.2,0.6,0l0.4,0.4c0.2,0.2,0.2,0.4,0,0.6l-3.5,3.5C560.2,112.4,559.9,112.4,559.7,112.2z"/>
		<path class="st26" d="M259.6,245.3h128.3c1.3,0,2.4,1.9,2.4,4.2v8.5c0,2.3-1.1,4.2-2.4,4.2H259.6c-1.3,0-2.4-1.9-2.4-4.2v-8.5
			C257.2,247.2,258.3,245.3,259.6,245.3z"/>
		<path class="st27" d="M395.7,188.7h48.8c0.3,0,0.6,1.7,0.6,3.7v11.2c0,2.1-0.3,3.7-0.6,3.7h-48.8c-0.3,0-0.6-1.7-0.6-3.7v-11.2
			C395.1,190.4,395.4,188.7,395.7,188.7z"/>
		<path class="st27" d="M266.6,246.7h129.2c0.9,0,1.6,1.6,1.6,3.5v10.6c0,1.9-0.7,3.5-1.6,3.5H266.6c-0.9,0-1.6-1.6-1.6-3.5v-10.6
			C265,248.3,265.7,246.7,266.6,246.7z"/>
		<path class="st28" d="M366.6,354.1c0,3.3-2.7,6-6,6c-3.3,0-6-2.7-6-6c0-3.3,2.7-6,6-6C363.9,348.1,366.6,350.8,366.6,354.1z
			 M359.9,357.2l4.4-4.4c0.2-0.1,0.2-0.4,0-0.5l-0.5-0.5c-0.1-0.1-0.4-0.1-0.5,0l-3.6,3.6l-1.7-1.7c-0.1-0.2-0.4-0.2-0.5,0l-0.5,0.5
			c-0.1,0.1-0.1,0.4,0,0.5l2.5,2.5C359.5,357.4,359.8,357.4,359.9,357.2z"/>
		<path class="st4" d="M112.5,78.6h16.6c2,0,3.7,1.7,3.7,3.7v16.6c0,2-1.7,3.7-3.7,3.7h-16.6c-2,0-3.7-1.7-3.7-3.7V82.3
			C108.8,80.2,110.5,78.6,112.5,78.6z"/>
		<path class="st29" d="M333.2,312.2h51.5c1,0,1.8,2,1.8,4.4v11.1c0,2.5-0.8,4.4-1.8,4.4h-51.5c-1,0-1.8-2-1.8-4.4v-11.1
			C331.4,314.2,332.2,312.2,333.2,312.2z"/>
	</g>
</g>
<text transform="matrix(1 0 0 1 350.1518 325.5349)" class="st2 st30 st31">PAY</text>
<text transform="matrix(1 0 0 1 275.2207 202.3909)" class="st32 st33 st34">ENTER AMOUNT</text>
<text transform="matrix(1 0 0 1 276.2106 259.8638)" class="st32 st33 st34">1234 1234 1324 1234 </text>
<text transform="matrix(1 0 0 1 276.2104 229.5182)" class="st32 st33 st34">John Doe</text>
<path class="st27" d="M405.9,246.7h38.1c0.3,0,0.5,1.6,0.5,3.5v10.6c0,1.9-0.2,3.5-0.5,3.5h-38.1c-0.3,0-0.5-1.6-0.5-3.5v-10.6
	C405.4,248.3,405.6,246.7,405.9,246.7z"/>
<text transform="matrix(1 0 0 1 414.1255 259.8638)" class="st32 st33 st34">123</text>
<text transform="matrix(1 0 0 1 407.7936 202.0303)" class="st32 st33 st34">1000</text>
<text transform="matrix(1 0 0 1 399.5881 201.7978)" class="st32 st33 st35">$</text>
<g id="oVB9X7.tif" class="st36">
	
		<image style="overflow:visible;" width="419" height="220" id="Layer_1_1_" xlink:href="3B1BC154977BCF3F.png"  transform="matrix(5.774162e-02 0 0 5.774162e-02 300.7238 282.1472)">
	</image>
</g>
<g id="gVX1yy.tif" class="st36">
	
		<image style="overflow:visible;" width="418" height="219" id="Layer_1_3_" xlink:href="3B1BC154977BCF3D.png"  transform="matrix(5.787975e-02 0 0 5.787975e-02 330.5596 282.161)">
	</image>
</g>
<g id="_x30_8raBe.tif" class="st37">
	
		<image style="overflow:visible;" width="432" height="226" id="Layer_1_4_" xlink:href="3B1BC154977BCF43.png"  transform="matrix(5.600402e-02 0 0 5.600402e-02 395.1604 282.1704)">
	</image>
</g>
<g id="h8P0Ch.tif">
	
		<image style="overflow:visible;" width="419" height="220" id="Layer_1_5_" xlink:href="3B1BC154977BCF45.png"  transform="matrix(5.774162e-02 0 0 5.774162e-02 363.36 282.1472)">
	</image>
</g>
</svg>
